<svg xmlns="http://www.w3.org/2000/svg" width="38" height="49" viewBox="0 0 38 49" fill="currentColor">
    <style>
        path {
            fill: white; /* Default color set to white */
        }
    </style>
    <path d="M17.6743 20.1064L17.8738 45.4997C17.8881 46.9901 19.0708 48.2023 20.5598 48.2522L22.5048 48.3093C24.0651 48.3592 25.3547 47.1113 25.3618 45.5496L25.4615 20.1064H17.6743Z"/>
    <path d="M11.0342 6.74268C15.3374 7.75527 18.629 11.2209 20.8804 14.8648C21.6285 16.1127 22.3196 17.3892 22.9038 18.7084L21.5073 18.8225C22.8824 13.7666 26.5373 9.26703 31.3891 7.22758C26.637 10.6219 23.5663 15.5137 22.4407 21.2256C19.8972 15.5922 16.8193 9.59505 11.0342 6.74268Z"/>
    <path d="M14.3186 9.74503C8.97511 11.6846 6.11103 10.7719 3.41081 5.73031C2.48461 4.22569 1.59403 2.64975 0.689209 1.13799C4.29425 0.660221 7.99905 0.838495 11.5186 1.76552C14.2046 2.37878 16.577 4.28274 15.4086 7.28486C15.1236 8.06213 14.7033 8.7467 14.2615 9.40988C15.1236 7.39895 15.8289 4.71772 13.3638 3.61243C11.2977 2.69254 8.86821 2.58557 6.63109 2.4073C5.08506 2.3146 3.53193 2.37164 1.98589 2.49287L2.56298 1.38045C3.24694 2.59984 3.95228 3.81209 4.61487 5.04575C7.04435 10.0659 9.0392 10.4866 14.3328 9.74503H14.3186Z"/>
    <path d="M27.3707 10.2584C24.3855 9.37418 25.3473 3.51256 27.5488 2.1862C28.2827 1.71556 29.0592 1.52302 29.7717 1.33762C31.9661 0.767143 34.2388 0.553216 36.5044 0.653049L36.7253 0.660179L36.9176 0.795668C37.8296 1.53015 37.4947 2.65684 37.395 3.61239C36.9319 7.42744 34.0179 11.4279 29.8785 11.4208C28.3254 11.3994 26.7651 10.7576 25.846 9.58098C28.1473 11.435 31.4673 10.9002 33.4195 8.88215C34.8943 7.4417 35.6637 5.42364 35.9416 3.39846C35.9843 2.96347 36.0841 2.43578 36.0199 2.02932C35.9986 1.95088 35.9914 1.9794 36.0199 2.0008L36.426 2.14341C33.7044 2.05071 30.6765 2.19333 28.1473 3.1774C27.0928 3.71222 26.6012 5.18119 26.245 6.52894C25.8817 7.86243 26.0455 9.50254 27.3636 10.2513L27.3707 10.2584Z"/>
</svg>