<svg width="31" height="31" viewBox="0 0 31 31" fill="none" xmlns="http://www.w3.org/2000/svg">
<path d="M15.5 1C23.5081 1 30 7.49187 30 15.5C30 23.5081 23.5081 30 15.5 30C7.49187 30 1 23.5081 1 15.5C1 7.49187 7.49187 1 15.5 1Z" fill="white" stroke="#560BA4" stroke-width="2"/>
<path d="M10.9551 12.8706V19.4302H10.2881V12.8706H10.9551ZM10.6211 8.6167C10.9209 8.6167 11.1631 8.8589 11.1631 9.15869C11.1628 9.45828 10.9207 9.69971 10.6211 9.69971C10.3161 9.6996 10.0735 9.45275 10.0732 9.15869C10.0732 8.8617 10.3121 8.6168 10.6211 8.6167Z" fill="#560BA4" stroke="#560BA4" stroke-width="2"/>
<path d="M18.7266 12.6558C19.8267 12.6559 20.2553 12.9957 20.4873 13.3628C20.7858 13.8353 20.9199 14.6018 20.9199 15.7339V19.4302H20.2598V16.2671C20.2598 15.8136 20.2674 15.044 20.0088 14.3911C19.8679 14.0356 19.6315 13.665 19.2383 13.3911C18.8431 13.1159 18.3746 12.9976 17.874 12.9976C17.761 12.9976 17.6495 13.0021 17.54 13.0132C17.8203 12.8115 18.2145 12.6558 18.7266 12.6558ZM15.1768 12.8706V14.0415H15.7822C15.75 14.0908 15.7187 14.141 15.6904 14.1919C15.3309 14.8395 15.2803 15.6118 15.2803 16.1958V19.4302H14.6201V12.8706H15.1768Z" fill="white" stroke="#560BA4" stroke-width="2"/>
</svg>
