<svg width="1075" height="962" viewBox="0 0 1075 962" fill="none" xmlns="http://www.w3.org/2000/svg">
<path d="M900.781 -131.172C1032.4 1.78858 843.015 -316.8 710.567 -182.455C578.119 -48.1103 595.334 57.0679 461.158 -75.4849C311.357 -150.507 148.884 -51.8152 119.994 -20.6608C-69.4436 -68.4206 31.2951 -51.6048 25.3559 8.66292C-105.867 -108.892 -241.757 250.145 -121.781 127.005C-49.2913 52.5759 -282.201 99.9537 -354.86 174.487C-535.819 360.045 -525.288 670.334 -333.516 843.952C-141.745 1017.57 156.831 994.881 331.976 805.204L217.917 809.282C415.241 1004 741.427 999.542 934.674 801.725C1129.4 602.525 1115.99 283.033 923.409 88.4233C850.463 14.5505 900.191 -135.161 973.411 -61.2238L900.781 -131.172Z" fill="#FC4A9E" fill-opacity="0.38"/>
</svg>
