<svg width="1007" height="942" viewBox="0 0 1007 942" fill="none" xmlns="http://www.w3.org/2000/svg">
<path d="M832.78 -151.172C964.404 -18.2114 775.015 -336.8 642.567 -202.455C510.119 -68.1103 527.334 37.0679 393.158 -95.4849C243.357 -170.507 80.8835 -71.8152 51.9938 -40.6608C-137.444 -88.4206 -36.7051 -71.6048 -42.6443 -11.3371C-173.868 -128.892 -309.758 230.145 -189.782 107.005C-117.292 32.5759 -350.201 79.9537 -422.86 154.487C-603.819 340.045 -593.288 650.334 -401.516 823.952C-209.745 997.571 88.8311 974.881 263.976 785.204L149.916 789.282C347.241 984.002 673.427 979.542 866.674 781.725C1061.4 582.525 1047.99 263.033 855.409 68.4233C782.462 -5.44952 832.191 -155.161 905.411 -81.2238L832.78 -151.172Z" fill="#FC4A9E" fill-opacity="0.7"/>
</svg>
