<svg width="32" height="32" viewBox="0 0 32 32" fill="none" xmlns="http://www.w3.org/2000/svg">
<rect width="32" height="32" rx="3" fill="#560BA4"/>
<path d="M17.443 14.876C17.7205 14.9035 17.9305 15.1631 17.9028 15.4345C17.875 15.7098 17.6135 15.9182 17.336 15.8907C17.0586 15.8631 16.8485 15.6036 16.8762 15.3283C16.904 15.053 17.1656 14.8445 17.4391 14.8721L17.443 14.876Z" fill="white"/>
<path d="M11.4147 4.86349C12.6552 1.39083 17.3084 1.04081 19.1633 4.01007C19.0483 4.02187 18.9294 4.03367 18.8105 4.05333L18.5569 4.09266L18.7828 4.21064L19.4883 4.58426L19.7142 4.70224L19.6112 4.47021C19.5636 4.36402 19.5121 4.25784 19.4566 4.15952C21.8466 4.10052 23.9155 5.97254 23.9195 8.42267V8.54852C23.8402 11.447 20.9231 13.2089 18.2438 12.4184L18.1169 12.3791C17.9386 12.3201 17.8395 12.2139 17.7959 12.0959C17.7483 11.974 17.7562 11.8285 17.8078 11.6908C17.9108 11.4273 18.1764 11.2307 18.5093 11.3211L18.541 11.329C20.5545 11.9819 22.7304 10.6368 22.7859 8.48166V8.37941C22.774 6.42481 21.0023 5.0562 19.1197 5.31183L19.0285 5.32363C18.7986 5.36295 18.5529 5.24104 18.438 5.04046L18.4181 4.9972L18.3587 4.87529C17.1023 2.36616 13.555 2.5628 12.5205 5.14272L12.4729 5.26857C12.4095 5.44161 12.2985 5.53993 12.1757 5.58712C12.0488 5.63432 11.9022 5.62645 11.7635 5.57139C11.4979 5.46914 11.3077 5.20957 11.4028 4.88315L11.4147 4.85169V4.86349ZM19.2624 4.17132C19.2861 4.21458 19.3139 4.26177 19.3377 4.30896L19.1038 4.18705C19.1554 4.18311 19.2108 4.17918 19.2624 4.17525V4.17132Z" fill="white"/>
<path d="M7.959 5.96008C8.96176 4.67799 10.6026 3.8993 12.3545 4.28864C12.7072 4.3673 12.8618 4.68979 12.8341 4.98082C12.8182 5.12633 12.7588 5.25218 12.6636 5.33477C12.5764 5.40949 12.4536 5.44882 12.2911 5.42129L12.2594 5.41343C9.62762 4.82351 7.24557 7.54894 8.39894 10.0345L8.45839 10.1525C8.54163 10.3176 8.53766 10.4631 8.48614 10.5851C8.43065 10.707 8.32364 10.8053 8.18888 10.8643C7.92332 10.9823 7.58246 10.9311 7.41996 10.6126C6.60745 9.01587 6.9602 7.24218 7.96296 5.95615L7.959 5.96008Z" fill="white"/>
<path d="M9.16339 9.60706C9.34967 9.57953 9.49236 9.63066 9.59937 9.72111C9.70638 9.81157 9.77773 9.94528 9.80151 10.0908C9.82529 10.2324 9.80151 10.3818 9.73017 10.4959C9.66279 10.6021 9.55577 10.6846 9.38931 10.7161H9.35363V10.72C7.9466 10.9206 6.93988 12.2106 7.16579 13.6303L7.17768 13.6972C7.44324 15.1248 8.79082 15.9349 10.1701 15.7344L10.2375 15.7226C10.5229 15.6754 10.832 15.8759 10.8875 16.1552V16.1827H10.8915C11.1015 17.7362 12.5601 18.8727 14.1217 18.6643C15.6754 18.4559 16.7574 17.0243 16.587 15.4945V15.4591C16.5434 15.1012 16.7971 14.8731 17.0864 14.8259C17.2291 14.8023 17.3757 14.8259 17.4907 14.8967C17.5937 14.9635 17.6769 15.0697 17.7047 15.2349V15.2703C17.9702 17.3822 16.5355 19.4076 14.419 19.7616L14.3159 19.7773C12.3778 20.0487 10.5189 18.8531 9.92834 17.0558C10.1027 17.0479 10.2771 17.0322 10.4515 17.0007L10.6576 16.9653L10.4872 16.8473L9.73413 16.3125L9.57163 16.1984L9.59937 16.3951C9.62315 16.5642 9.65486 16.7254 9.69846 16.8867C7.97831 16.8513 6.42859 15.6793 6.07584 13.9685L6.05602 13.8742C5.69931 11.9038 7.08652 9.94922 9.06826 9.61886L9.16339 9.60313V9.60706ZM10.2137 16.8631C10.1027 16.8749 9.99176 16.8827 9.88078 16.8867C9.85303 16.7844 9.82925 16.6782 9.80547 16.576L10.2137 16.867V16.8631Z" fill="white"/>
<path d="M23.6213 9.76353C23.7244 9.70847 23.8512 9.68881 23.9978 9.73207L24.0256 9.73994C25.4207 10.2473 25.9598 11.5254 25.8884 12.8744C25.821 14.1879 25.175 15.5408 24.2079 16.2762L24.1128 16.347C23.4231 16.8308 22.6067 17.1179 21.7624 17.1572H21.6792C21.5881 17.1572 21.4771 17.1454 21.3502 17.1257C21.2194 17.1061 21.0926 17.0785 20.9499 17.0549C20.8152 17.0313 20.6765 17.0117 20.5457 17.0078C20.4188 17.0078 20.292 17.0156 20.185 17.0589C19.9749 17.1454 19.8243 17.3499 19.7054 17.5583C19.6182 17.7157 19.5429 17.8848 19.4834 18.0263L19.424 18.1561C19.0475 18.9584 18.6551 19.7686 18.3935 20.6299L18.342 20.8029C18.0288 21.9159 18.0764 23.0289 18.1438 24.1458L18.1715 24.6256C18.1914 24.952 17.9496 25.1604 17.688 25.2037C17.5572 25.2273 17.4304 25.2037 17.3352 25.1408C17.248 25.0857 17.1807 24.9874 17.1648 24.838V24.8065C17.038 22.7339 17.0816 20.9248 17.902 19.0174L17.9853 18.8326C18.2191 18.3134 18.4569 17.6488 18.8017 17.0864C19.1347 16.5437 19.5508 16.1268 20.1374 16.0442L20.1929 16.0363C20.4426 16.0088 20.6883 16.0403 20.946 16.0757C21.1679 16.1071 21.4018 16.1425 21.6356 16.1386H21.7387C22.1905 16.1111 22.6423 15.9892 23.0466 15.7925C23.76 15.4425 24.3229 14.8644 24.6122 14.125L24.6399 14.0542C24.8421 13.4879 24.9372 12.7721 24.8143 12.135C24.6875 11.4979 24.3427 10.9276 23.653 10.6759L23.5896 10.6523C23.4707 10.5934 23.3994 10.5068 23.3637 10.4085C23.3241 10.2945 23.328 10.1607 23.3756 10.0388C23.4231 9.91691 23.5103 9.81073 23.6213 9.75173V9.76353Z" fill="white"/>
<path d="M25.7541 20.8034C25.7541 20.8034 24.1132 20.3668 21.7431 21.0393C19.3729 21.7118 18.1363 23.7097 17.8272 24.2918C17.514 24.8777 17.4467 28.0633 17.4467 28.0908C17.4467 28.1223 17.4348 28.142 17.4506 28.1695C17.6726 28.1262 17.7994 27.6346 17.9223 27.4695C18.1006 27.2256 18.382 27.0801 18.6635 26.9661C19.7772 26.5217 20.99 26.4115 22.1077 25.9868C24.0023 25.271 24.9297 23.4895 25.5758 21.6961C25.6788 21.409 25.8056 21.1101 25.7541 20.7994V20.8034ZM23.7129 23.049C23.2769 23.6546 22.6864 24.1226 21.9967 24.4923C21.6598 24.6732 18.5128 26.093 18.4455 25.4401C18.3979 25.0036 18.9409 24.5671 19.2104 24.276C20.4629 22.9153 22.1236 21.9478 23.9785 21.704C24.0934 21.6882 24.244 21.6961 24.2837 21.8023C24.3074 21.8574 24.2837 21.9203 24.2678 21.9753C24.137 22.3568 23.9468 22.7226 23.709 23.049H23.7129Z" fill="white"/>
<path d="M11.3404 21.1099C13.2349 20.3509 15.4505 20.8779 16.8258 22.3684L16.8893 22.4392C18.4945 24.2522 18.435 26.958 16.921 28.8064C16.7149 29.0581 16.4057 29.0424 16.1917 28.8851C16.0847 28.8064 16.0094 28.7002 15.9856 28.5822C15.9618 28.4682 15.9856 28.3384 16.0926 28.2086C17.2975 26.7338 17.4243 24.6258 16.1521 23.1432L16.0886 23.0724C15.0462 21.9161 13.3182 21.4481 11.8438 22.0066L11.7724 22.0341C11.4672 22.156 11.2096 21.9909 11.0986 21.751C11.0431 21.633 11.0312 21.4993 11.0669 21.3852C11.0986 21.279 11.1739 21.1846 11.3126 21.1217L11.3404 21.1099Z" fill="white"/>
</svg>
