<svg width="111" height="113" viewBox="0 0 111 113" fill="none" xmlns="http://www.w3.org/2000/svg">
<path d="M87.3515 0H23.0408C10.3157 0 0 10.3161 0 23.0417V89.9583C0 102.684 10.3157 113 23.0408 113H87.3515C100.077 113 110.392 102.684 110.392 89.9583V23.0417C110.392 10.3161 100.077 0 87.3515 0Z" fill="#FE0578"/>
<path d="M22.0194 88.4116C24.6049 91.1554 38.9187 105.189 60.2704 104.001C60.2704 104.001 61.7721 103.595 51.5727 92.581C51.5727 92.581 48.8193 90.3899 49.5711 83.1311C50.3229 75.8723 53.6388 70.4903 58.3313 71.867L64.213 73.1188C64.213 73.1188 75.9765 76.4972 75.5391 67.0493C75.5391 67.0493 75.1017 65.3601 75.7891 64.2958C76.4765 63.2315 79.1049 61.6048 77.2908 60.5405C77.2908 60.5405 77.3962 60.3315 75.0216 60.6772C74.4456 60.7611 73.8422 60.5561 73.4907 60.0913C73.1372 59.6226 73.1079 59.0582 74.7248 58.8512C77.4079 58.5095 79.8294 57.5409 78.5249 55.2853C78.0641 54.4866 77.8317 53.559 77.9957 52.6509C78.1441 51.8288 78.5776 51.0086 79.6673 50.7781C79.6673 50.7781 85.1116 50.9031 84.5473 46.7728C84.5473 46.7728 82.0497 42.6113 79.6009 38.8189C79.0932 38.0338 78.5386 37.282 77.9859 36.5301C77.3943 35.7236 76.4628 33.8352 77.0389 30.3786C77.0389 30.3786 80.2238 12.5783 60.9499 10.6724C60.9304 10.6724 60.9187 10.6919 60.9304 10.7075C61.5475 11.4164 69.7277 21.4424 53.3849 36.7L41.1195 47.5891C41.1195 47.5891 36.9269 51.6569 36.9269 60.1675C36.9269 60.1675 36.8371 64.4794 34.3297 70.3965C32.17 75.4915 28.1297 81.7778 22.0487 87.5289C21.7968 87.7672 21.7812 88.1597 22.0175 88.4116H22.0194Z" fill="white"/>
<path d="M67.0603 35.2338C67.0603 35.2338 66.3846 34.978 66.1503 35.8392C66.0253 36.2981 66.1893 36.7902 66.5623 37.0851C67.8355 38.0908 71.3193 40.2975 73.8169 36.714C74.0883 36.3254 74.061 35.7767 73.7153 35.4525C73.479 35.2299 73.1373 35.1518 72.6803 35.597C72.6803 35.597 69.8312 37.5772 67.0603 35.2338Z" fill="#FE0578"/>
<path d="M41.8206 14.5956C32.5273 17.1304 31.0256 25.4847 31.0256 25.4847L29.9926 30.6481C29.8052 31.2105 29.524 30.8824 29.2877 30.4138C28.7936 29.4276 28.1863 28.496 27.3993 27.7227C22.9724 23.3639 20.137 25.2055 20.137 25.2055C18.3541 27.6466 26.9893 32.3393 26.9893 32.3393C29.9926 33.2786 29.4302 34.1222 29.4302 34.1222C29.7114 38.7212 24.7377 42.4765 24.7377 42.4765C25.4895 42.9452 29.7134 37.6901 30.557 35.0615C31.4025 32.433 31.4963 33.2786 31.4963 33.2786L35.3452 32.9036C48.8623 29.242 49.331 14.787 49.331 14.787C48.0167 12.8166 41.8225 14.5995 41.8225 14.5995L41.8206 14.5956ZM36.3548 28.2305C36.3919 24.4048 39.446 20.8291 43.2188 20.1925L36.3548 28.2305Z" fill="white"/>
<g clip-path="url(#clip0_736_913)">
<mask id="mask0_736_913" style="mask-type:luminance" maskUnits="userSpaceOnUse" x="83" y="43" width="25" height="28">
<path d="M108 43H83.0403V71H108V43Z" fill="white"/>
</mask>
<g mask="url(#mask0_736_913)">
<path d="M98.5621 45.6934L97.1242 57.4999C96.9713 57.4764 96.813 57.4633 96.6494 57.4685C96.3274 57.4764 95.9975 57.5364 95.6729 57.6512C94.2886 58.1366 93.3845 59.4102 93.6152 60.5481C93.7896 61.4171 94.6025 62.0017 95.638 62.0017C95.6595 62.0017 95.6809 62.0017 95.7024 62.0017C96.0243 61.9939 96.3543 61.9312 96.6816 61.819C97.7976 61.4275 98.6372 60.5037 98.7741 59.512L99.9088 50.1847L105.717 53.1886L104.797 60.7673C104.646 60.7438 104.488 60.7333 104.335 60.7386C104.013 60.7464 103.686 60.8064 103.359 60.9212C101.977 61.4067 101.073 62.6802 101.301 63.8207C101.476 64.6897 102.288 65.2743 103.324 65.2743C103.345 65.2743 103.367 65.2743 103.388 65.2743C103.71 65.2665 104.04 65.2038 104.367 65.089C105.481 64.6976 106.315 63.7789 106.444 62.7977L107.96 50.3387L98.5621 45.6934Z" fill="white"/>
<path d="M90.372 55.3C90.1761 55.1487 89.9615 55.0051 89.7201 54.8564C89.6101 54.7885 89.5001 54.7259 89.3928 54.6685C89.2667 54.598 89.1514 54.5406 89.0467 54.4884C88.9126 54.4232 88.7811 54.3605 88.6524 54.3005C88.3814 54.1726 88.1239 54.0526 87.9012 53.9221C87.6088 53.7525 87.3942 53.5645 87.2627 53.3662C87.2252 53.3088 87.1474 53.1522 87.083 53.0243L86.9811 52.8208C86.8845 52.6303 86.7772 52.4163 86.5599 52.1344C86.3426 51.8552 86.0153 51.6934 85.6639 51.6934C85.5244 51.6934 85.3875 51.7195 85.2588 51.7664C85.2078 51.7847 85.1595 51.8082 85.1085 51.8343C84.5988 52.1057 84.3198 52.6955 84.4325 53.2723L87.0454 64.4576C86.7772 64.4863 86.5062 64.5542 86.2379 64.6534C85.8409 64.8021 85.4573 65.0213 85.1032 65.3058C83.5955 66.5115 83.0375 68.4819 83.8369 69.7946C84.2581 70.4862 85.0039 70.8855 85.8785 70.8855C86.254 70.8855 86.6404 70.8124 87.024 70.6688C87.4237 70.5201 87.8073 70.3009 88.1614 70.0164C89.3767 69.043 90.0044 67.5345 89.7201 66.2584L87.4157 56.3961C87.5364 56.4379 87.6571 56.4796 87.7751 56.5188C87.8985 56.5605 88.0219 56.6023 88.1292 56.6388L88.4136 56.7458C88.5236 56.7902 88.6068 56.8267 88.6792 56.8633C88.8536 56.9442 89.0226 57.0329 89.1862 57.1295C89.8918 57.5444 90.3934 58.0768 90.6805 58.7188C90.9917 59.3921 91.0668 60.2664 90.8951 61.1798C90.8307 61.5295 91.0373 61.8688 91.3726 61.9706C91.5175 62.0123 91.6731 62.0097 91.8179 61.9549C92.0299 61.8766 92.1882 61.7044 92.2552 61.4904C92.6281 60.282 92.6523 59.045 92.3223 58.0116C91.9977 56.9781 91.3243 56.0438 90.372 55.3079" fill="white"/>
<path d="M95.1551 45.5917C95.0854 45.4873 95.0049 45.3803 94.9137 45.2707C94.8708 45.2211 94.8278 45.1715 94.7876 45.1246C94.7366 45.0698 94.691 45.0228 94.6481 44.981C94.5944 44.9288 94.5408 44.8766 94.4898 44.8271C94.3798 44.7201 94.2752 44.6209 94.1894 44.5217C94.0767 44.3912 94.0043 44.266 93.9747 44.1485C93.9667 44.1146 93.956 44.0259 93.9452 43.9528L93.9291 43.8354C93.9157 43.7284 93.8996 43.6057 93.8406 43.4335C93.7816 43.2612 93.6501 43.1307 93.4784 43.0733C93.4114 43.0498 93.3389 43.042 93.2692 43.042C93.2424 43.042 93.2129 43.0446 93.186 43.0498C92.8909 43.0994 92.6549 43.3421 92.6119 43.6396L91.9735 49.509C91.8366 49.4802 91.6945 49.4672 91.5469 49.4724C91.3269 49.4802 91.1043 49.5246 90.8816 49.6055C89.94 49.9474 89.3337 50.819 89.4973 51.5863C89.5832 51.9908 89.8783 52.3066 90.3048 52.4475C90.4872 52.5076 90.6885 52.5363 90.8977 52.5284C91.1177 52.5206 91.343 52.4762 91.563 52.3953C92.3222 52.1187 92.8856 51.4845 92.9661 50.8164L93.5294 45.6413C93.5804 45.6804 93.6314 45.7196 93.6823 45.7587C93.736 45.8005 93.787 45.8396 93.8352 45.8762L93.956 45.9754C94.0016 46.0145 94.0364 46.0458 94.066 46.0745C94.1384 46.1424 94.2055 46.2128 94.2672 46.2859C94.5408 46.6017 94.6937 46.9436 94.7232 47.3037C94.7581 47.6821 94.6481 48.118 94.4067 48.5381C94.3154 48.6973 94.3584 48.8957 94.5032 49.0001C94.5676 49.0444 94.6427 49.0679 94.7232 49.0653C94.8413 49.0601 94.9459 49.0027 95.0156 48.9087C95.4046 48.3815 95.6273 47.7813 95.6434 47.2254C95.6622 46.6695 95.4932 46.1058 95.1551 45.5943" fill="white"/>
</g>
</g>
<defs>
<clipPath id="clip0_736_913">
<rect width="25" height="28" fill="white" transform="translate(83 43)"/>
</clipPath>
</defs>
</svg>
