<svg width="116" height="114" viewBox="0 0 116 114" fill="none" xmlns="http://www.w3.org/2000/svg">
<g clip-path="url(#clip0_739_860)">
<path d="M95.0419 0H20.9581C9.38325 0 0 9.3679 0 20.9238V93.0762C0 104.632 9.38325 114 20.9581 114H95.0419C106.617 114 116 104.632 116 93.0762V20.9238C116 9.3679 106.617 0 95.0419 0Z" fill="#560BA4"/>
<path d="M26.5719 90.1268C29.182 92.8926 43.6286 107.029 65.1759 105.835C65.1759 105.835 66.6925 105.424 56.3984 94.3278C56.3984 94.3278 53.6202 92.1207 54.3775 84.8065C55.1349 77.4924 58.4825 72.0695 63.2183 73.4573L69.1544 74.7187C69.1544 74.7187 81.0264 78.1241 80.5855 68.6029C80.5855 68.6029 80.1426 66.9012 80.8386 65.8292C81.5326 64.7573 84.1863 63.1188 82.3552 62.0468C82.3552 62.0468 82.46 61.8356 80.0654 62.185C79.4821 62.2699 78.8751 62.0626 78.5191 61.5947C78.1632 61.1269 78.1316 60.5524 79.7649 60.3451C82.4719 59.9996 84.9159 59.0264 83.601 56.7522C83.1343 55.9468 82.901 55.013 83.0671 54.097C83.2174 53.2679 83.6544 52.4407 84.7538 52.2097C84.7538 52.2097 90.2489 52.3361 89.6794 48.1746C89.6794 48.1746 87.1602 43.9816 84.6865 40.1616C84.1744 39.37 83.6148 38.6139 83.0552 37.8539C82.4581 37.0405 81.5188 35.1394 82.1002 31.6551C82.1002 31.6551 85.3153 13.7201 65.862 11.7993C65.8423 11.7993 65.8304 11.8191 65.8423 11.8349C66.4651 12.5495 74.7206 22.6511 58.2275 38.0236L45.8492 48.9939C45.8492 48.9939 41.6176 53.0922 41.6176 61.6678C41.6176 61.6678 41.5266 66.0109 38.9956 71.9747C36.8166 77.1074 32.7392 83.4404 26.6015 89.2365C26.3484 89.4754 26.3306 89.8722 26.5719 90.1268Z" fill="white"/>
<path d="M69.0199 34.9344C69.0199 34.9344 68.3199 34.7291 68.1499 35.6115C68.0589 36.0814 68.2626 36.565 68.66 36.8315C70.0165 37.7456 73.6924 39.698 75.9328 35.9077C76.176 35.497 76.1068 34.9463 75.735 34.6482C75.48 34.4429 75.13 34.3896 74.7028 34.8712C74.7028 34.8712 71.9879 37.0783 69.0199 34.9344Z" fill="#560BA4"/>
<path d="M93.4501 75.2657L94.4526 60.0254C94.5238 58.9436 93.98 57.8736 92.9993 57.4097C92.3131 57.084 91.4569 57.0741 90.5651 58.0335C89.9897 58.6534 89.6516 59.4509 89.531 60.288C88.9813 64.1099 86.9545 78.2881 86.8872 80.2207C86.8853 80.2918 86.9663 80.3293 87.0177 80.2819C87.692 79.6739 90.8519 76.8884 92.6987 76.2448C93.1238 76.0968 93.4204 75.7138 93.4501 75.2657Z" fill="white"/>
<path d="M84.742 90.7646C85.1849 88.1923 87.0041 80.5939 93.2684 78.5073C93.2684 78.5073 98.2197 77.3741 98.7536 80.0866C98.8584 80.6196 98.5282 81.1467 98.014 81.3243C95.9101 82.0488 89.9464 84.6152 87.5222 91.0548C87.5222 91.0548 87.0219 92.7802 85.5211 92.186C84.9575 91.9629 84.6411 91.3608 84.742 90.7646Z" fill="white"/>
<path d="M98.0673 89.2901C98.0673 89.2901 97.2467 87.7759 90.6779 95.2164C90.6779 95.2164 87.6466 97.234 88.8469 93.0725C88.8469 93.0725 90.1124 87.4482 95.821 84.8503C96.6001 84.4969 97.3733 84.1277 98.1286 83.727L98.7001 83.425C98.7001 83.425 101.288 82.1635 102.425 85.5057C103.562 88.8479 101.542 95.0269 101.542 95.0269C101.542 95.0269 100.106 100.091 94.6109 106.06C92.4358 108.423 89.2384 109.659 86.0529 109.221C84.3583 108.988 82.7309 108.315 81.8529 106.753C81.8529 106.753 77.6689 101.583 78.2383 96.6023C78.2383 96.6023 79.5651 84.8128 82.4066 82.1635C85.2481 79.5162 84.6806 83.6145 84.6806 83.6145L82.6597 90.8023C82.6597 90.8023 81.7383 93.3568 84.9614 94.2807C85.7088 94.4959 86.3495 94.9736 86.7568 95.6369C87.6684 97.1155 89.6833 99.1963 92.7759 96.0061C93.5925 95.1651 94.4606 94.3774 95.4078 93.6845C97.31 92.2927 100.013 89.9791 98.0693 89.2901H98.0673Z" fill="white"/>
<path d="M43.4624 16.4585C34.0838 19.013 32.5691 27.4287 32.5691 27.4287L31.527 32.6306C31.3372 33.1971 31.0525 32.8675 30.8172 32.3937C30.3189 31.3987 29.7039 30.461 28.911 29.6812C24.4441 25.2908 21.5809 27.1445 21.5809 27.1445C19.7815 29.6042 28.4957 34.3323 28.4957 34.3323C31.527 35.2779 30.9595 36.1287 30.9595 36.1287C31.2443 40.762 26.2237 44.5464 26.2237 44.5464C26.9811 45.0202 31.2443 39.7236 32.0965 37.0743C32.9488 34.427 33.0437 35.2779 33.0437 35.2779L36.9272 34.8988C50.569 31.2112 51.0416 16.646 51.0416 16.646C49.7148 14.6601 43.4624 16.4565 43.4624 16.4565V16.4585ZM37.9455 30.1965C37.9831 26.343 41.0658 22.7382 44.8722 22.0986L37.9455 30.1965Z" fill="white"/>
</g>
<defs>
<clipPath id="clip0_739_860">
<rect width="116" height="114" fill="white"/>
</clipPath>
</defs>
</svg>
