<svg width="31" height="31" viewBox="0 0 31 31" fill="none" xmlns="http://www.w3.org/2000/svg">
<path d="M15.5 1C23.5081 1 30 7.49187 30 15.5C30 23.5081 23.5081 30 15.5 30C7.49187 30 1 23.5081 1 15.5C1 7.49187 7.49187 1 15.5 1Z" fill="#FDFBFC" stroke="#560BA4" stroke-width="2"/>
<path d="M19.8311 11.2588C19.8309 11.2905 19.8062 11.3153 19.7744 11.3154C19.7506 11.3154 19.7302 11.3016 19.7217 11.2812L19.7178 11.2588C19.7178 11.2269 19.7425 11.2021 19.7744 11.2021L19.7969 11.2061C19.8172 11.2146 19.8311 11.2349 19.8311 11.2588Z" fill="#4F3088" stroke="#560BA4" stroke-width="2"/>
<mask id="path-3-inside-1_698_926" fill="white">
<path d="M15.565 11.5259C13.373 11.5259 11.5908 13.3081 11.5908 15.5001C11.5908 17.6921 13.373 19.4743 15.565 19.4743C17.757 19.4743 19.5392 17.6921 19.5392 15.5001C19.5392 13.3081 17.757 11.5259 15.565 11.5259ZM15.565 18.0433C14.1601 18.0433 13.0218 16.8985 13.0218 15.5001C13.0218 14.1016 14.1666 12.9568 15.565 12.9568C16.9635 12.9568 18.1082 14.1016 18.1082 15.5001C18.1082 16.8985 16.9635 18.0433 15.565 18.0433Z"/>
</mask>
<path d="M15.565 11.5259C13.373 11.5259 11.5908 13.3081 11.5908 15.5001C11.5908 17.6921 13.373 19.4743 15.565 19.4743C17.757 19.4743 19.5392 17.6921 19.5392 15.5001C19.5392 13.3081 17.757 11.5259 15.565 11.5259ZM15.565 18.0433C14.1601 18.0433 13.0218 16.8985 13.0218 15.5001C13.0218 14.1016 14.1666 12.9568 15.565 12.9568C16.9635 12.9568 18.1082 14.1016 18.1082 15.5001C18.1082 16.8985 16.9635 18.0433 15.565 18.0433Z" fill="#4F3088"/>
<path d="M15.565 11.5259V9.52588C12.2685 9.52588 9.59082 12.2035 9.59082 15.5001H11.5908H13.5908C13.5908 14.4127 14.4776 13.5259 15.565 13.5259V11.5259ZM11.5908 15.5001H9.59082C9.59082 18.7966 12.2685 21.4743 15.565 21.4743V19.4743V17.4743C14.4776 17.4743 13.5908 16.5875 13.5908 15.5001H11.5908ZM15.565 19.4743V21.4743C18.8616 21.4743 21.5392 18.7966 21.5392 15.5001H19.5392H17.5392C17.5392 16.5875 16.6524 17.4743 15.565 17.4743V19.4743ZM19.5392 15.5001H21.5392C21.5392 12.2035 18.8616 9.52588 15.565 9.52588V11.5259V13.5259C16.6524 13.5259 17.5392 14.4127 17.5392 15.5001H19.5392ZM15.565 18.0433V16.0433C15.268 16.0433 15.0218 15.7973 15.0218 15.5001H13.0218H11.0218C11.0218 17.9998 13.0522 20.0433 15.565 20.0433V18.0433ZM13.0218 15.5001H15.0218C15.0218 15.2062 15.2711 14.9568 15.565 14.9568V12.9568V10.9568C13.062 10.9568 11.0218 12.9971 11.0218 15.5001H13.0218ZM15.565 12.9568V14.9568C15.8589 14.9568 16.1082 15.2062 16.1082 15.5001H18.1082H20.1082C20.1082 12.9971 18.068 10.9568 15.565 10.9568V12.9568ZM18.1082 15.5001H16.1082C16.1082 15.7939 15.8589 16.0433 15.565 16.0433V18.0433V20.0433C18.068 20.0433 20.1082 18.0031 20.1082 15.5001H18.1082Z" fill="#560BA4" mask="url(#path-3-inside-1_698_926)"/>
<mask id="path-5-inside-2_698_926" fill="white">
<path d="M18.7197 23.5655H12.2804C9.60704 23.5655 7.43457 21.393 7.43457 18.7197V12.2804C7.43457 9.60704 9.60704 7.43457 12.2804 7.43457H18.7197C21.393 7.43457 23.5655 9.60704 23.5655 12.2804V18.7197C23.5655 21.393 21.393 23.5655 18.7197 23.5655ZM12.2804 8.9501C10.4461 8.9501 8.9501 10.4461 8.9501 12.2804V18.7197C8.9501 20.554 10.4461 22.05 12.2804 22.05H18.7197C20.554 22.05 22.05 20.554 22.05 18.7197V12.2804C22.05 10.4461 20.554 8.9501 18.7197 8.9501H12.2804Z"/>
</mask>
<path d="M18.7197 23.5655H12.2804C9.60704 23.5655 7.43457 21.393 7.43457 18.7197V12.2804C7.43457 9.60704 9.60704 7.43457 12.2804 7.43457H18.7197C21.393 7.43457 23.5655 9.60704 23.5655 12.2804V18.7197C23.5655 21.393 21.393 23.5655 18.7197 23.5655ZM12.2804 8.9501C10.4461 8.9501 8.9501 10.4461 8.9501 12.2804V18.7197C8.9501 20.554 10.4461 22.05 12.2804 22.05H18.7197C20.554 22.05 22.05 20.554 22.05 18.7197V12.2804C22.05 10.4461 20.554 8.9501 18.7197 8.9501H12.2804Z" fill="#4F3088"/>
<path d="M18.7197 23.5655V21.5655H12.2804V23.5655V25.5655H18.7197V23.5655ZM12.2804 23.5655V21.5655C10.7116 21.5655 9.43457 20.2885 9.43457 18.7197H7.43457H5.43457C5.43457 22.4976 8.50247 25.5655 12.2804 25.5655V23.5655ZM7.43457 18.7197H9.43457V12.2804H7.43457H5.43457V18.7197H7.43457ZM7.43457 12.2804H9.43457C9.43457 10.7116 10.7116 9.43457 12.2804 9.43457V7.43457V5.43457C8.50247 5.43457 5.43457 8.50247 5.43457 12.2804H7.43457ZM12.2804 7.43457V9.43457H18.7197V7.43457V5.43457H12.2804V7.43457ZM18.7197 7.43457V9.43457C20.2885 9.43457 21.5655 10.7116 21.5655 12.2804H23.5655H25.5655C25.5655 8.50247 22.4976 5.43457 18.7197 5.43457V7.43457ZM23.5655 12.2804H21.5655V18.7197H23.5655H25.5655V12.2804H23.5655ZM23.5655 18.7197H21.5655C21.5655 20.2885 20.2885 21.5655 18.7197 21.5655V23.5655V25.5655C22.4976 25.5655 25.5655 22.4976 25.5655 18.7197H23.5655ZM12.2804 8.9501V6.9501C9.34154 6.9501 6.9501 9.34154 6.9501 12.2804H8.9501H10.9501C10.9501 11.5507 11.5507 10.9501 12.2804 10.9501V8.9501ZM8.9501 12.2804H6.9501V18.7197H8.9501H10.9501V12.2804H8.9501ZM8.9501 18.7197H6.9501C6.9501 21.6585 9.34154 24.05 12.2804 24.05V22.05V20.05C11.5507 20.05 10.9501 19.4494 10.9501 18.7197H8.9501ZM12.2804 22.05V24.05H18.7197V22.05V20.05H12.2804V22.05ZM18.7197 22.05V24.05C21.6585 24.05 24.05 21.6585 24.05 18.7197H22.05H20.05C20.05 19.4494 19.4494 20.05 18.7197 20.05V22.05ZM22.05 18.7197H24.05V12.2804H22.05H20.05V18.7197H22.05ZM22.05 12.2804H24.05C24.05 9.34154 21.6585 6.9501 18.7197 6.9501V8.9501V10.9501C19.4494 10.9501 20.05 11.5507 20.05 12.2804H22.05ZM18.7197 8.9501V6.9501H12.2804V8.9501V10.9501H18.7197V8.9501Z" fill="#560BA4" mask="url(#path-5-inside-2_698_926)"/>
</svg>
